<svg width="20" height="20" viewBox="0 0 20 20" fill="none" xmlns="http://www.w3.org/2000/svg">
<path d="M10 0C9.42344 0 8.8705 0.229037 8.46281 0.636724C8.05512 1.04441 7.82609 1.59736 7.82609 2.17391C7.8263 2.59672 7.94981 3.01028 8.18148 3.36396C8.41315 3.71765 8.74293 3.9961 9.13043 4.16522V5.21739H5.65217C5.19093 5.21739 4.74857 5.40062 4.42242 5.72677C4.09627 6.05292 3.91304 6.49528 3.91304 6.95652V7.57391C3.52554 7.74303 3.19576 8.02148 2.96409 8.37517C2.73242 8.72885 2.60891 9.14241 2.6087 9.56522C2.60891 9.98802 2.73242 10.4016 2.96409 10.7553C3.19576 11.1089 3.52554 11.3874 3.91304 11.5565V12.1739H3.04348C2.58223 12.1739 2.13988 12.3571 1.81373 12.6833C1.48758 13.0094 1.30435 13.4518 1.30435 13.913V14.9652C0.916842 15.1343 0.587063 15.4128 0.355393 15.7665C0.123724 16.1202 0.000217827 16.5337 0 16.9565C0 17.5331 0.229037 18.086 0.636724 18.4937C0.838591 18.6956 1.07824 18.8557 1.34199 18.965C1.60574 19.0742 1.88843 19.1304 2.17391 19.1304C2.75047 19.1304 3.30341 18.9014 3.7111 18.4937C4.11879 18.086 4.34783 17.5331 4.34783 16.9565C4.34761 16.5337 4.2241 16.1202 3.99243 15.7665C3.76076 15.4128 3.43098 15.1343 3.04348 14.9652V13.913H6.52174V14.9652C6.13423 15.1343 5.80445 15.4128 5.57278 15.7665C5.34111 16.1202 5.21761 16.5337 5.21739 16.9565C5.21739 17.5331 5.44643 18.086 5.85412 18.4937C6.2618 18.9014 6.81475 19.1304 7.3913 19.1304C7.67679 19.1304 7.95947 19.0742 8.22322 18.965C8.48698 18.8557 8.72663 18.6956 8.92849 18.4937C9.13036 18.2918 9.29049 18.0522 9.39974 17.7884C9.50899 17.5247 9.56522 17.242 9.56522 16.9565C9.565 16.5337 9.44149 16.1202 9.20982 15.7665C8.97815 15.4128 8.64837 15.1343 8.26087 14.9652V13.913C8.26087 13.4518 8.07764 13.0094 7.75149 12.6833C7.42534 12.3571 6.98299 12.1739 6.52174 12.1739H5.65217V11.5565C6.03968 11.3874 6.36946 11.1089 6.60113 10.7553C6.8328 10.4016 6.9563 9.98802 6.95652 9.56522C6.9563 9.14241 6.8328 8.72885 6.60113 8.37517C6.36946 8.02148 6.03968 7.74303 5.65217 7.57391V6.95652H14.3478V7.57391C13.9603 7.74303 13.6305 8.02148 13.3989 8.37517C13.1672 8.72885 13.0437 9.14241 13.0435 9.56522C13.0437 9.98802 13.1672 10.4016 13.3989 10.7553C13.6305 11.1089 13.9603 11.3874 14.3478 11.5565V12.1739H13.4783C13.017 12.1739 12.5747 12.3571 12.2485 12.6833C11.9224 13.0094 11.7391 13.4518 11.7391 13.913V14.9652C11.3516 15.1343 11.0218 15.4128 10.7902 15.7665C10.5585 16.1202 10.435 16.5337 10.4348 16.9565C10.4348 17.5331 10.6638 18.086 11.0715 18.4937C11.4792 18.9014 12.0321 19.1304 12.6087 19.1304C13.1853 19.1304 13.7382 18.9014 14.1459 18.4937C14.5536 18.086 14.7826 17.5331 14.7826 16.9565C14.7824 16.5337 14.6589 16.1202 14.4272 15.7665C14.1955 15.4128 13.8658 15.1343 13.4783 14.9652V13.913H16.9565V14.9652C16.569 15.1343 16.2392 15.4128 16.0076 15.7665C15.7759 16.1202 15.6524 16.5337 15.6522 16.9565C15.6522 17.5331 15.8812 18.086 16.2889 18.4937C16.6966 18.9014 17.2495 19.1304 17.8261 19.1304C18.4026 19.1304 18.9556 18.9014 19.3633 18.4937C19.771 18.086 20 17.5331 20 16.9565C19.9998 16.5337 19.8763 16.1202 19.6446 15.7665C19.4129 15.4128 19.0832 15.1343 18.6957 14.9652V13.913C18.6957 13.4518 18.5124 13.0094 18.1863 12.6833C17.8601 12.3571 17.4178 12.1739 16.9565 12.1739H16.087V11.5565C16.4745 11.3874 16.8042 11.1089 17.0359 10.7553C17.2676 10.4016 17.3911 9.98802 17.3913 9.56522C17.3911 9.14241 17.2676 8.72885 17.0359 8.37517C16.8042 8.02148 16.4745 7.74303 16.087 7.57391V6.95652C16.087 6.49528 15.9037 6.05292 15.5776 5.72677C15.2514 5.40062 14.8091 5.21739 14.3478 5.21739H10.8696V4.16522C11.2571 3.9961 11.5868 3.71765 11.8185 3.36396C12.0502 3.01028 12.1737 2.59672 12.1739 2.17391C12.1739 1.59736 11.9449 1.04441 11.5372 0.636724C11.1295 0.229037 10.5766 0 10 0ZM10 1.30435C10.2306 1.30435 10.4518 1.39596 10.6149 1.55904C10.778 1.72211 10.8696 1.94329 10.8696 2.17391C10.8696 2.40454 10.778 2.62571 10.6149 2.78879C10.4518 2.95186 10.2306 3.04348 10 3.04348C9.76938 3.04348 9.5482 2.95186 9.38512 2.78879C9.22205 2.62571 9.13043 2.40454 9.13043 2.17391C9.13043 1.94329 9.22205 1.72211 9.38512 1.55904C9.5482 1.39596 9.76938 1.30435 10 1.30435ZM4.78261 8.69565C5.01323 8.69565 5.23441 8.78727 5.39748 8.95034C5.56056 9.11342 5.65217 9.33459 5.65217 9.56522C5.65217 9.79584 5.56056 10.017 5.39748 10.1801C5.23441 10.3432 5.01323 10.4348 4.78261 10.4348C4.55199 10.4348 4.33081 10.3432 4.16773 10.1801C4.00466 10.017 3.91304 9.79584 3.91304 9.56522C3.91304 9.33459 4.00466 9.11342 4.16773 8.95034C4.33081 8.78727 4.55199 8.69565 4.78261 8.69565ZM15.2174 8.69565C15.448 8.69565 15.6692 8.78727 15.8323 8.95034C15.9953 9.11342 16.087 9.33459 16.087 9.56522C16.087 9.79584 15.9953 10.017 15.8323 10.1801C15.6692 10.3432 15.448 10.4348 15.2174 10.4348C14.9868 10.4348 14.7656 10.3432 14.6025 10.1801C14.4394 10.017 14.3478 9.79584 14.3478 9.56522C14.3478 9.33459 14.4394 9.11342 14.6025 8.95034C14.7656 8.78727 14.9868 8.69565 15.2174 8.69565ZM2.17391 16.087C2.40454 16.087 2.62571 16.1786 2.78879 16.3416C2.95186 16.5047 3.04348 16.7259 3.04348 16.9565C3.04348 17.1871 2.95186 17.4083 2.78879 17.5714C2.62571 17.7345 2.40454 17.8261 2.17391 17.8261C1.94329 17.8261 1.72211 17.7345 1.55904 17.5714C1.39596 17.4083 1.30435 17.1871 1.30435 16.9565C1.30435 16.7259 1.39596 16.5047 1.55904 16.3416C1.72211 16.1786 1.94329 16.087 2.17391 16.087ZM7.3913 16.087C7.62193 16.087 7.8431 16.1786 8.00618 16.3416C8.16925 16.5047 8.26087 16.7259 8.26087 16.9565C8.26087 17.1871 8.16925 17.4083 8.00618 17.5714C7.8431 17.7345 7.62193 17.8261 7.3913 17.8261C7.16068 17.8261 6.9395 17.7345 6.77643 17.5714C6.61335 17.4083 6.52174 17.1871 6.52174 16.9565C6.52174 16.7259 6.61335 16.5047 6.77643 16.3416C6.9395 16.1786 7.16068 16.087 7.3913 16.087ZM12.6087 16.087C12.8393 16.087 13.0605 16.1786 13.2236 16.3416C13.3866 16.5047 13.4783 16.7259 13.4783 16.9565C13.4783 17.1871 13.3866 17.4083 13.2236 17.5714C13.0605 17.7345 12.8393 17.8261 12.6087 17.8261C12.3781 17.8261 12.1569 17.7345 11.9938 17.5714C11.8307 17.4083 11.7391 17.1871 11.7391 16.9565C11.7391 16.7259 11.8307 16.5047 11.9938 16.3416C12.1569 16.1786 12.3781 16.087 12.6087 16.087ZM17.8261 16.087C18.0567 16.087 18.2779 16.1786 18.441 16.3416C18.604 16.5047 18.6957 16.7259 18.6957 16.9565C18.6957 17.1871 18.604 17.4083 18.441 17.5714C18.2779 17.7345 18.0567 17.8261 17.8261 17.8261C17.5955 17.8261 17.3743 17.7345 17.2112 17.5714C17.0481 17.4083 16.9565 17.1871 16.9565 16.9565C16.9565 16.7259 17.0481 16.5047 17.2112 16.3416C17.3743 16.1786 17.5955 16.087 17.8261 16.087Z" fill="black"/>
</svg>
